<svg width="228" height="42" viewBox="0 0 228 42" xmlns="http://www.w3.org/2000/svg" xmlns:xlink="http://www.w3.org/1999/xlink"><title>logo</title><desc>Created using Figma</desc><g fill="#FFF"><use xlink:href="#a"/><use xlink:href="#b"/><use xlink:href="#c"/><use xlink:href="#d"/><use xlink:href="#e"/><use xlink:href="#f"/><use xlink:href="#g"/><use xlink:href="#h"/><use xlink:href="#i"/></g><defs><path id="a" d="M0 21.879c0-2.253.456-4.287 1.368-6.102a10.435 10.435 0 0 1 3.95-4.326c1.721-1.056 3.738-1.583 6.05-1.583.81 0 1.638.07 2.486.212.86.129 1.65.29 2.37.483l2.14-.618h.038l.828.753v28.83l2.678.444V42H10.694v-2.028l4.162-.444V33.35l.135-3.244c-.77.798-1.702 1.461-2.794 1.989-1.079.515-2.274.772-3.584.772a8.107 8.107 0 0 1-4.297-1.197c-1.297-.798-2.344-2.021-3.14-3.669C.391 26.352 0 24.312 0 21.879zm14.856-8.613c-.154-.309-.604-.585-1.349-.83-.732-.258-1.535-.386-2.408-.386-1.914 0-3.456.766-4.625 2.298-1.169 1.519-1.753 3.9-1.753 7.144 0 1.867.244 3.438.732 4.712.501 1.275 1.175 2.22 2.023 2.839.86.618 1.83.927 2.91.927.925 0 1.779-.2 2.563-.599.783-.399 1.419-.856 1.907-1.371V13.266z"/><path id="b" d="M39.906 29.796c-.823.798-1.863 1.512-3.122 2.143-1.259.618-2.53.927-3.815.927-1.606 0-2.91-.283-3.912-.85-1.002-.579-1.74-1.493-2.216-2.741-.475-1.25-.713-2.897-.713-4.944v-11.2l-2.139-.714v-1.874l5.704-.579h.02l.809.521V24.12c0 1.467.109 2.613.327 3.437.219.824.604 1.429 1.156 1.815.553.373 1.35.56 2.39.56a6.746 6.746 0 0 0 2.794-.58c.86-.386 1.605-.83 2.235-1.332V13.15l-2.756-.753v-1.873l6.09-.56h.038l1.021.521V30.24h2.312v1.931a25.85 25.85 0 0 1-1.946.502c-.54.129-1.162.193-1.869.193-.822 0-1.432-.154-1.83-.463-.386-.322-.578-.856-.578-1.603v-1.004z"/><path id="c" d="M52.237 29.989V13.807l-2.794-.792v-2.278l6.128-.792h.096l.983.753v19.291l3.083.328v2.105H49.116v-2.105l3.121-.328zm-.79-26.32c0-.875.25-1.616.752-2.22.514-.606 1.227-.908 2.139-.908h.019c.54 0 1.008.128 1.407.386.398.244.7.573.905.985.219.412.328.85.328 1.313 0 .901-.257 1.641-.771 2.22-.514.58-1.259.87-2.235.87h-.02c-.744 0-1.355-.252-1.83-.754-.462-.502-.694-1.132-.694-1.892z"/><path id="d" d="M73.414 9.868c1.85 0 3.828.399 5.934 1.197l-.192 5.947h-2.679l-.886-3.61c-.18-.425-.54-.74-1.079-.947-.527-.206-1.162-.309-1.908-.309-1.13 0-2.113.316-2.948.946-.835.618-1.483 1.552-1.946 2.8-.462 1.236-.694 2.768-.694 4.596 0 2.124.277 3.888.83 5.291.551 1.404 1.303 2.44 2.254 3.11.95.669 2.023 1.003 3.217 1.003 1.118 0 2.146-.16 3.083-.482.951-.335 1.76-.74 2.428-1.217l.829 1.777c-.463.476-1.08.94-1.85 1.39-.77.438-1.638.798-2.601 1.081a9.98 9.98 0 0 1-2.871.425c-2.171 0-4.008-.483-5.511-1.448-1.503-.966-2.634-2.285-3.392-3.959-.745-1.686-1.117-3.598-1.117-5.735 0-2.201.424-4.197 1.272-5.986a10.007 10.007 0 0 1 3.776-4.287c1.67-1.056 3.687-1.583 6.05-1.583z"/><path id="e" d="M85.033 29.989V3.051l-3.006-.386V.83L88.443 0h.058l.925.657v19.117l-.077 2.201 8.594-8.98-3.102-.56v-1.969h9.807v1.97l-3.025.656-5.607 5.485 7.553 11.412 2.312.328v2.105h-9.653v-2.085l2.312-.367-5.434-8.825-3.776 3.746.096 2.047v3.051l2.775.348v2.085h-9.692v-2.105l2.524-.328z"/><path id="f" d="M114.199 29.043V6.739l-2.794-.579V3.032h6.956c.347 0 1.073-.026 2.178-.078a77.602 77.602 0 0 1 3.969-.115c3.044 0 5.434.334 7.168 1.004 1.747.67 2.98 1.654 3.699 2.954.72 1.3 1.079 2.968 1.079 5.002 0 3.476-1.008 6.16-3.025 8.052-2.017 1.892-5.016 2.839-8.998 2.839-.476 0-.925-.013-1.349-.039a11.272 11.272 0 0 1-.886-.077v6.469l5.106.444v2.935h-15.974v-2.935l2.871-.444zm10.001-9.27c1.323 0 2.344-.591 3.063-1.776.732-1.184 1.099-3.173 1.099-5.967 0-4.21-1.413-6.314-4.24-6.314-.462 0-.815.02-1.059.058a3.762 3.762 0 0 0-.559.096 3.56 3.56 0 0 1-.328.078V19.56c.45.142 1.124.213 2.024.213z"/><path id="g" d="M140.135 29.043l2.582-22.304-3.758-.579V3.032h14.471l4.066 15.873.674 4.036.598-4.036 3.237-15.873h14.721V6.16l-4.22.58 3.372 22.283 3.102.464v2.935h-14.586v-2.935l3.218-.464-1.696-16.684-.751-6.662-1.099 5.91-4.316 19.812h-6.532L147.65 12.28l-1.426-6.642-.386 6.681-1.079 16.703 4.066.464v2.935h-11.927v-2.935l3.237-.444z"/><path id="h" d="M179.578 17.727c0-3.051.546-5.71 1.638-7.975 1.104-2.279 2.684-4.036 4.74-5.272 2.068-1.236 4.509-1.854 7.322-1.854 4.701 0 8.118 1.255 10.251 3.766 2.145 2.497 3.218 6.089 3.218 10.775 0 3.128-.578 5.896-1.735 8.303-1.143 2.395-2.774 4.236-4.894 5.523.732.168 1.471.4 2.216.695a84.83 84.83 0 0 1 3.025 1.294c1.632.734 2.968 1.281 4.008 1.641 1.054.374 2.043.56 2.968.56h.038c1.182 0 2.01-.09 2.486-.27l.636 1.931c-.309.45-.636.856-.983 1.217-.334.373-.874.727-1.619 1.062-.745.335-1.682.502-2.813.502h-.212a9.877 9.877 0 0 1-3.353-.58 15.42 15.42 0 0 1-2.928-1.41 58.385 58.385 0 0 1-3.18-2.2 66.377 66.377 0 0 0-2.543-1.777 13.772 13.772 0 0 0-2.004-1.081c-1.054.193-2.036.29-2.948.29-4.638 0-8.022-1.327-10.155-3.979-2.119-2.665-3.179-6.385-3.179-11.161zm8.767-.039c0 4.352.405 7.486 1.214 9.404.822 1.906 2.01 2.858 3.565 2.858 1.554 0 2.749-1.094 3.584-3.282.835-2.189 1.252-5.35 1.252-9.482 0-2.922-.193-5.24-.578-6.951-.372-1.713-.906-2.923-1.599-3.63-.694-.709-1.561-1.063-2.602-1.063-1.58 0-2.781 1.004-3.603 3.012-.822 2.009-1.233 5.053-1.233 9.134z"/><path id="i" d="M213.683 25.934l1.118 3.128c.141.245.507.47 1.098.676.591.193 1.169.29 1.734.29.861 0 1.536-.2 2.024-.599.488-.412.732-.914.732-1.506a1.79 1.79 0 0 0-.501-1.255c-.334-.374-.764-.702-1.291-.985a33.759 33.759 0 0 0-2.235-1.062 88.716 88.716 0 0 1-2.313-1.101c-1.554-.785-2.742-1.732-3.564-2.839-.822-1.107-1.233-2.478-1.233-4.113 0-1.249.353-2.375 1.059-3.379.72-1.017 1.779-1.815 3.18-2.395 1.413-.592 3.102-.888 5.067-.888 1.285 0 2.39.077 3.315.232.937.142 1.907.335 2.909.58.809.218 1.426.34 1.85.366v5.6l-4.124-.02-1.117-3.07c-.116-.218-.386-.412-.809-.579-.412-.18-.9-.27-1.465-.27-.886 0-1.58.193-2.081.58-.488.373-.732.881-.732 1.525 0 .515.173.972.52 1.37.36.4.809.747 1.349 1.043.552.284 1.31.631 2.274 1.043l.77.348c1.362.592 2.518 1.19 3.469 1.796a7.866 7.866 0 0 1 2.37 2.278c.629.927.944 2.04.944 3.341a6.207 6.207 0 0 1-.983 3.399c-.655 1.017-1.702 1.84-3.141 2.471-1.425.618-3.237.927-5.433.927-1.49 0-2.794-.103-3.912-.309a35.364 35.364 0 0 1-3.468-.83c-.835-.232-1.4-.367-1.696-.406v-5.387h4.316z"/></defs></svg>