<svg version="1" xmlns="http://www.w3.org/2000/svg" width="933.333" height="933.333" viewBox="0 0 700.000000 700.000000"><path d="M0 350v350h700V0H0v350zM387.6 82.4c14.2 1.7 30.1 4.7 43.2 8l9.2 2.4 18-4.9c10.6-3 18.6-4.7 19.4-4.2.8.4 3.7 3 6.5 5.6l5.1 4.8.2 243.7.3 243.7 18.5 2.7c10.2 1.5 20.4 3 22.8 3.3l4.2.6V619H347v-30.8l4.8-.6c5-.7 65.6-6.6 67.1-6.6.5 0 1.1-30.5 1.5-69.3.3-38 .9-74.4 1.2-80.7l.6-11.5-4.8 4.5c-18.5 17.2-44.9 31.6-68.8 37.4-20.1 5-44.2 5.8-63.5 2.1-60.3-11.6-102.9-61.2-114.5-133.6-4.1-25.3-4.5-62.3-1.1-84.4C180 178 217.2 124.9 272 99.1c20.1-9.4 39.2-14.4 66.5-17.5 8.4-.9 38.5-.4 49.1.8z"/><path d="M338 115.6c-24.9 4.8-41.5 13.6-57.6 30.6-25 26.3-36.6 63.2-38.1 120.8-1.1 43.2 3.8 73.3 16.2 99.6 17.9 38.3 50.5 57.7 91 54.3 23.2-2 46.1-12.2 64.8-28.9l5.7-5.2V134.2l-3.5-3.1c-4.7-4.1-9.2-6.3-19.5-9.5-15.1-4.8-20.8-5.7-39-6.1-9.6-.2-18.6-.1-20 .1z"/></svg>