<?xml version="1.0" standalone="no"?>
<!DOCTYPE svg PUBLIC "-//W3C//DTD SVG 20010904//EN"
 "http://www.w3.org/TR/2001/REC-SVG-20010904/DTD/svg10.dtd">
<svg version="1.0" xmlns="http://www.w3.org/2000/svg"
 width="700.000000pt" height="700.000000pt" viewBox="0 0 700.000000 700.000000"
 preserveAspectRatio="xMidYMid meet">
<metadata>
Created by potrace 1.11, written by Peter Selinger 2001-2013
</metadata>
<g transform="translate(0.000000,700.000000) scale(0.100000,-0.100000)"
fill="#000000" stroke="none">
<path d="M0 3500 l0 -3500 3500 0 3500 0 0 3500 0 3500 -3500 0 -3500 0 0
-3500z m3876 2676 c142 -17 301 -47 432 -80 l92 -24 180 49 c106 30 186 47
194 42 8 -4 37 -30 65 -56 l51 -48 2 -2437 3 -2437 185 -27 c102 -15 204 -30
228 -33 l42 -6 0 -155 0 -154 -940 0 -940 0 0 154 0 154 48 6 c50 7 656 66
671 66 5 0 11 305 15 693 3 380 9 744 12 807 l6 115 -48 -45 c-185 -172 -449
-316 -688 -374 -201 -50 -442 -58 -635 -21 -603 116 -1029 612 -1145 1336 -41
253 -45 623 -11 844 105 675 477 1206 1025 1464 201 94 392 144 665 175 84 9
385 4 491 -8z"/>
<path d="M3380 5844 c-249 -48 -415 -136 -576 -306 -250 -263 -366 -632 -381
-1208 -11 -432 38 -733 162 -996 179 -383 505 -577 910 -543 232 20 461 122
648 289 l57 52 0 1263 0 1263 -35 31 c-47 41 -92 63 -195 95 -151 48 -208 57
-390 61 -96 2 -186 1 -200 -1z"/>
</g>
</svg>
